<mxfile host="app.diagrams.net" agent="Mozilla/5.0 (Windows NT 10.0; Win64; x64) AppleWebKit/537.36 (KHTML, like Gecko) Chrome/129.0.0.0 Safari/537.36" version="24.8.0">
  <diagram name="Page-1" id="zuUL0wKJrNIPzHb3tSHN">
    <mxGraphModel dx="1498" dy="1097" grid="1" gridSize="10" guides="1" tooltips="1" connect="1" arrows="1" fold="1" page="1" pageScale="1" pageWidth="850" pageHeight="1100" math="0" shadow="0">
      <root>
        <mxCell id="0" />
        <mxCell id="1" parent="0" />
        <mxCell id="AvygrkO9rlU_DCxi-ut3-1" value="" style="strokeWidth=1;shadow=0;dashed=0;align=center;html=1;shape=mxgraph.mockup.containers.browserWindow;rSize=0;strokeColor=#666666;strokeColor2=#008cff;strokeColor3=#c4c4c4;mainText=,;recursiveResize=0;" vertex="1" parent="1">
          <mxGeometry x="40" y="120" width="760" height="940" as="geometry" />
        </mxCell>
        <mxCell id="AvygrkO9rlU_DCxi-ut3-2" value="DineScout" style="strokeWidth=1;shadow=0;dashed=0;align=center;html=1;shape=mxgraph.mockup.containers.anchor;fontSize=17;fontColor=#666666;align=left;whiteSpace=wrap;" vertex="1" parent="AvygrkO9rlU_DCxi-ut3-1">
          <mxGeometry x="60" y="12" width="110" height="26" as="geometry" />
        </mxCell>
        <mxCell id="AvygrkO9rlU_DCxi-ut3-3" value="https://www.dinescout.com/create_food" style="strokeWidth=1;shadow=0;dashed=0;align=center;html=1;shape=mxgraph.mockup.containers.anchor;rSize=0;fontSize=17;fontColor=#666666;align=left;" vertex="1" parent="AvygrkO9rlU_DCxi-ut3-1">
          <mxGeometry x="130" y="60" width="250" height="26" as="geometry" />
        </mxCell>
        <mxCell id="AvygrkO9rlU_DCxi-ut3-4" value="" style="strokeWidth=1;shadow=0;dashed=0;align=center;html=1;shape=mxgraph.mockup.forms.rrect;rSize=0;strokeColor=#999999;fillColor=#ffffff;" vertex="1" parent="AvygrkO9rlU_DCxi-ut3-1">
          <mxGeometry x="180" y="110" width="420" height="830" as="geometry" />
        </mxCell>
        <mxCell id="AvygrkO9rlU_DCxi-ut3-5" value="&lt;b&gt;Create Food&lt;/b&gt;&lt;div&gt;&lt;b&gt;For Restaurant&lt;/b&gt;&lt;/div&gt;" style="strokeWidth=1;shadow=0;dashed=0;align=center;html=1;shape=mxgraph.mockup.forms.anchor;fontSize=12;fontColor=#666666;align=left;resizeWidth=1;spacingLeft=0;" vertex="1" parent="AvygrkO9rlU_DCxi-ut3-4">
          <mxGeometry width="273" height="40" relative="1" as="geometry">
            <mxPoint x="155" y="137" as="offset" />
          </mxGeometry>
        </mxCell>
        <mxCell id="AvygrkO9rlU_DCxi-ut3-7" value="" style="ellipse;whiteSpace=wrap;html=1;aspect=fixed;" vertex="1" parent="AvygrkO9rlU_DCxi-ut3-4">
          <mxGeometry x="163.98000000000002" y="49.303030303030305" width="80" height="80" as="geometry" />
        </mxCell>
        <mxCell id="AvygrkO9rlU_DCxi-ut3-8" value="Logo" style="text;strokeColor=none;fillColor=none;html=1;fontSize=24;fontStyle=1;verticalAlign=middle;align=center;" vertex="1" parent="AvygrkO9rlU_DCxi-ut3-4">
          <mxGeometry x="100" y="66.61" width="210" height="45.39" as="geometry" />
        </mxCell>
        <mxCell id="AvygrkO9rlU_DCxi-ut3-9" value="Create" style="strokeWidth=1;shadow=0;dashed=0;align=center;html=1;shape=mxgraph.mockup.forms.rrect;rSize=5;strokeColor=none;fontColor=#ffffff;fillColor=#66bbff;fontSize=16;fontStyle=1;" vertex="1" parent="AvygrkO9rlU_DCxi-ut3-4">
          <mxGeometry x="280" y="190" width="89.82" height="30" as="geometry" />
        </mxCell>
        <mxCell id="AvygrkO9rlU_DCxi-ut3-14" value="User Account" style="strokeWidth=1;shadow=0;dashed=0;align=center;html=1;shape=mxgraph.mockup.forms.rrect;rSize=5;strokeColor=none;fontColor=#ffffff;fillColor=#66bbff;fontSize=16;fontStyle=1;" vertex="1" parent="AvygrkO9rlU_DCxi-ut3-4">
          <mxGeometry x="290" y="12" width="120.82" height="30" as="geometry" />
        </mxCell>
        <mxCell id="AvygrkO9rlU_DCxi-ut3-16" value="DineScout [Food List Add Page]" style="text;strokeColor=none;fillColor=none;html=1;fontSize=24;fontStyle=1;verticalAlign=middle;align=center;" vertex="1" parent="1">
          <mxGeometry x="375" y="40" width="100" height="60" as="geometry" />
        </mxCell>
        <mxCell id="AvygrkO9rlU_DCxi-ut3-17" value="" style="strokeWidth=1;shadow=0;dashed=0;align=center;html=1;shape=mxgraph.mockup.forms.rrect;rSize=0;strokeColor=#999999;fontColor=#666666;align=left;spacingLeft=5;resizeWidth=1;" vertex="1" parent="1">
          <mxGeometry x="274" y="474" width="315" height="330" as="geometry" />
        </mxCell>
        <mxCell id="AvygrkO9rlU_DCxi-ut3-18" value="" style="verticalLabelPosition=bottom;shadow=0;dashed=0;align=center;html=1;verticalAlign=top;strokeWidth=1;shape=mxgraph.mockup.graphics.simpleIcon;strokeColor=#999999;" vertex="1" parent="1">
          <mxGeometry x="425" y="683" width="137.75" height="96" as="geometry" />
        </mxCell>
        <mxCell id="AvygrkO9rlU_DCxi-ut3-24" value="" style="rounded=0;whiteSpace=wrap;html=1;" vertex="1" parent="1">
          <mxGeometry x="294" y="519" width="273" height="20" as="geometry" />
        </mxCell>
        <mxCell id="AvygrkO9rlU_DCxi-ut3-25" value="" style="rounded=0;whiteSpace=wrap;html=1;" vertex="1" parent="1">
          <mxGeometry x="294" y="576" width="273" height="20" as="geometry" />
        </mxCell>
        <mxCell id="AvygrkO9rlU_DCxi-ut3-26" value="" style="rounded=0;whiteSpace=wrap;html=1;" vertex="1" parent="1">
          <mxGeometry x="295" y="635" width="275" height="20" as="geometry" />
        </mxCell>
        <mxCell id="AvygrkO9rlU_DCxi-ut3-28" value="&lt;div&gt;&lt;b&gt;Food Name&lt;/b&gt;&lt;/div&gt;&lt;div&gt;&lt;b&gt;&lt;br&gt;&lt;/b&gt;&lt;/div&gt;&lt;div&gt;&lt;b&gt;Name&lt;/b&gt;&lt;/div&gt;&lt;div&gt;&lt;b&gt;&lt;br&gt;&lt;/b&gt;&lt;/div&gt;&lt;div&gt;&lt;b&gt;Description&lt;/b&gt;&lt;/div&gt;&lt;div&gt;&lt;b&gt;&lt;br&gt;&lt;/b&gt;&lt;/div&gt;&lt;div&gt;&lt;b&gt;Description&lt;/b&gt;&lt;/div&gt;&lt;div&gt;&lt;b&gt;&lt;br&gt;&lt;/b&gt;&lt;/div&gt;&lt;div&gt;&lt;b&gt;Price&lt;/b&gt;&lt;/div&gt;&lt;div&gt;&lt;b&gt;&lt;br&gt;&lt;/b&gt;&lt;/div&gt;&lt;div&gt;&lt;b&gt;$ Price&lt;/b&gt;&lt;/div&gt;&lt;div&gt;&lt;b&gt;&lt;br&gt;&lt;/b&gt;&lt;/div&gt;&lt;div&gt;&lt;b&gt;&lt;br&gt;&lt;/b&gt;&lt;/div&gt;&lt;div&gt;&lt;b&gt;Upload Image&lt;/b&gt;&lt;/div&gt;&lt;div&gt;&lt;b&gt;&lt;u&gt;&lt;font color=&quot;#3333ff&quot;&gt;Upload Here&lt;/font&gt;&lt;/u&gt;&lt;/b&gt;&lt;/div&gt;" style="strokeWidth=1;shadow=0;dashed=0;align=center;html=1;shape=mxgraph.mockup.forms.anchor;fontSize=12;fontColor=#666666;align=left;resizeWidth=1;spacingLeft=0;perimeterSpacing=5;" vertex="1" parent="1">
          <mxGeometry x="294.75" y="582" width="273" height="40" as="geometry" />
        </mxCell>
      </root>
    </mxGraphModel>
  </diagram>
</mxfile>
